<?xml version="1.0" encoding="utf-8"?>
<!-- Generator: Adobe Illustrator 18.1.1, SVG Export Plug-In . SVG Version: 6.00 Build 0)  -->
<svg version="1.1" id="Layer_1" xmlns="http://www.w3.org/2000/svg" xmlns:xlink="http://www.w3.org/1999/xlink" x="0px" y="0px"
	 viewBox="0 0 69.4 58.1" enable-background="new 0 0 69.4 58.1" xml:space="preserve">
<g>
	<path fill="#F68F3B" d="M40.8,42.2c-6.3,0.9-11.3,3-14.3,5.8c-1.5,0-3,0-4.5,0c-11.7,0-21.2-0.6-22-2.8c0-0.1,0-0.3,0-0.4
		c0-0.1,0-0.2,0-0.3c0-5.1,7.1-9.3,16.8-10.4c0.5-0.7,0.8-1.5,0.8-2.5c0-0.4-0.1-0.9-0.2-1.2c-2.5-2-4.4-5.6-5.3-9.9
		c-0.1,0-0.1,0-0.2,0c-0.4-0.1-0.7-0.4-0.7-0.6c0-0.3-0.1-0.6-0.3-0.8c-0.2-0.2-0.7-1.8-0.3-3.7c0.2-0.8,0.5-0.8,0.7-0.5
		c0.1-10.6,4.9-13.2,4.9-13.2c0.4-0.4,3.8-2.9,12.2-1c2.2,0.5,4.7,2.6,5.1,3.9c0.4,1.3-0.8,2.8-1.1,3.7c0.6,0.8,0.6,3.8,0.5,6.4
		c0.2-0.2,0.4-0.1,0.5,0.6c0.4,1.9-0.1,3.5-0.3,3.7s-0.3,0.5-0.3,0.8c0,0.3-0.2,0.6-0.7,0.6H32c-0.9,4.4-2.9,8-5.4,10
		c-0.1,0.4-0.2,0.8-0.2,1.2c0,0.9,0.3,1.8,0.8,2.4c3.9,0.5,7.5,1.5,10.3,2.8c0.9,1.8,2.1,3.4,3.4,4.6v0.2
		C40.9,41.8,40.9,42,40.8,42.2z"/>
	<g>
		<path fill="#6DC28E" d="M69.4,54.5c0,0.1,0,0.2,0,0.3c0,0.1,0,0.3,0,0.4c-0.8,2.3-10.3,2.8-22,2.8c-11.7,0-21.2-0.6-22-2.8
			c0-0.1,0-0.3,0-0.4c0-0.1,0-0.2,0-0.3c0-2.5,1.7-4.7,4.6-6.6c3-1.9,7.3-3.3,12.2-3.9c0.5-0.7,0.8-1.5,0.8-2.5c0-0.2,0-0.4,0-0.6
			c0-0.2-0.1-0.4-0.1-0.6c-2.5-2-4.4-5.6-5.3-9.9h-0.2c-0.4-0.1-0.7-0.4-0.7-0.6c0-0.3-0.1-0.6-0.3-0.8s-0.7-1.8-0.3-3.7
			c0.1-0.5,0.3-0.7,0.4-0.7c0.1,0,0.2,0.1,0.3,0.2c0.1-10.6,4.9-13.2,4.9-13.2c0.3-0.3,2.2-1.7,6.4-1.7c1.6,0,3.5,0.2,5.8,0.7
			c2.2,0.5,4.7,2.6,5.1,3.9c0.4,1.3-0.8,2.8-1.1,3.7c0.6,0.8,0.6,3.8,0.5,6.4c0,0,0.1-0.1,0.1-0.1c0.1,0,0.3,0.2,0.4,0.7
			c0.4,1.9-0.1,3.5-0.3,3.7c-0.2,0.2-0.3,0.5-0.3,0.8c0,0.3-0.2,0.6-0.7,0.6h-0.1c-0.9,4.4-2.9,8-5.4,10c-0.1,0.4-0.2,0.8-0.2,1.2
			c0,0.9,0.3,1.8,0.8,2.4C62.2,45.2,69.4,49.5,69.4,54.5z"/>
	</g>
</g>
</svg>
