<?xml version="1.0" encoding="utf-8"?>
<!-- Generator: Adobe Illustrator 18.1.1, SVG Export Plug-In . SVG Version: 6.00 Build 0)  -->
<svg version="1.1" id="Layer_1" xmlns="http://www.w3.org/2000/svg" xmlns:xlink="http://www.w3.org/1999/xlink" x="0px" y="0px"
	 viewBox="0 0 299.7 103.5" enable-background="new 0 0 299.7 103.5" xml:space="preserve">
<g>
	<g>
		<path fill="#F68F3B" d="M23.6,46.9l-3.5,16.3c-1.4,6.6-4,10.8-11.1,10.8c-4.1,0-6-3-6-6c0-2.9,1.9-5.9,5.3-5.9
			c1.7,0,4.2,0.1,4.2,2.9c0,0.5-0.1,1.1-0.3,1.7c-1.1-0.9-1.7-1.1-2.6-1.1c-2,0-3,1.7-3,3.3c0,1.5,0.9,2.9,2.7,2.9
			c1.9,0,3.3-0.9,4.3-5.3l1.7-7.7c-2.5,1.3-4.9,1.6-5.3,1.6c-7,0-9.3-5.1-9.3-11.1c0-8.3,5.7-16.6,15.3-16.6c4,0,8,1.6,8,5.8
			c0,2.3-0.8,4-3,4c-0.7,0-2.2-0.2-3-1.1c1.1-0.3,1.9-2.5,1.9-3.5c0-0.7-0.2-3.1-3-3.1c-4.8,0-9.6,8.1-9.6,15c0,3.8,1.4,7.1,5,7.1
			c1.6,0,2.8-0.4,3.7-1.6l1.9-8.2L23.6,46.9z"/>
		<path fill="#F68F3B" d="M45.8,43.4l-3.1,14.7c-0.1,0.6-0.2,1-0.2,1.4c0,1.2,0.6,1.9,1.8,1.9c1.7,0,2.9-1.9,3.5-4.1h1.8
			c-2.5,7-6.4,8-8.7,8c-2.4,0-4-1.4-4.2-4c-1.3,2-3.4,4-6.4,4c-2.9,0-5.8-1.8-5.8-7c0-5.8,3.6-15.1,11.1-15.1c2.5,0,3.5,1,3.5,2.2
			v0.3l0.5-2.3H45.8z M30.8,57.7c0,3.3,1.4,3.4,2.2,3.4c1.3,0,3.1-1.3,3.6-3.8l2.1-9.8c0-0.5-0.4-1.6-1.8-1.6
			C33.2,45.8,30.8,53.6,30.8,57.7z"/>
		<path fill="#F68F3B" d="M69.3,47.1c-1.6,0-2.7,1.8-3.4,4L63,65h-6.2l3.2-14.9c0.1-0.3,0.1-0.7,0.1-1.1c0-1-0.3-1.9-1.3-1.9
			c-1.7,0-2.9,1.9-3.5,4L52.3,65h-6.2l4.6-21.6h6.2l-0.5,2.2c1.8-2.1,3.8-2.5,5.3-2.5c2.3,0,4,1,4.5,3.7c2.1-3.2,4.4-3.7,6-3.7
			c2.8,0,4.8,1.4,4.8,4.9c0,3.5-2.1,8.7-2.1,11.2c0,1.1,0.4,1.8,1.7,1.8c1.9,0,2.7-1.6,3.6-3.8h1.8c-2.4,7.1-5.8,8-8,8
			c-3.8,0-5.1-2.4-5.1-4.9c0-2.9,1.9-8.3,1.9-11C70.9,47.9,70.4,47.1,69.3,47.1z"/>
		<path fill="#F68F3B" d="M88.7,61.1c1.6,0,3.7-1.1,5.1-2.3c-0.9,4.9-4,6.4-7.5,6.4c-4,0-6.7-2-6.7-6.9c0-5,2.8-15.4,11.7-15.4
			c3.8,0,4.8,2,4.8,4.2c0,5-4.8,8.8-9.9,9.1c0,0.4-0.1,0.9-0.1,1.3C86,60.3,87.2,61.1,88.7,61.1z M91.7,45.3c-2.2,0-4.3,4.8-5.2,8.9
			c3.4-0.2,6.3-3.5,6.3-7.1C92.8,46,92.5,45.3,91.7,45.3z"/>
		<path fill="#F68F3B" d="M114.6,43.4l-3.1,14.7c-0.1,0.3-0.1,0.7-0.1,1.1c0,1,0.3,1.9,1.3,1.9c1.7,0,2.8-1.6,3.5-3.8l2.9-13.9h6.2
			l-3.1,14.7c-0.1,0.6-0.2,1.2-0.2,1.6c0,0.9,0.4,1.4,1.5,1.4c4.2,0,7.5-9.7,7.5-14.4c-0.1,0.3-1,0.4-1.4,0.4c-1,0-1.6-1.3-1.6-2.2
			c0-1.3,0.9-2.3,2.7-2.3c2.1,0,2.7,1.9,2.7,3.8c0,6.9-3.5,19-12.3,19c-2.8,0-4.7-1.2-5.2-3.6c-2.1,3.1-4.4,3.6-6.1,3.6
			c-2.6,0-4.6-1.6-4.6-5.2c0-0.8,0.1-1.8,0.3-2.8l2.9-13.9H114.6z"/>
		<path fill="#F68F3B" d="M154.8,43.4l-3.1,14.7c-0.1,0.6-0.2,1-0.2,1.4c0,1.2,0.6,1.9,1.8,1.9c1.7,0,2.9-1.9,3.5-4.1h1.8
			c-2.5,7-6.4,8-8.7,8c-2.4,0-4-1.4-4.2-4c-1.3,2-3.4,4-6.4,4c-2.9,0-5.8-1.8-5.8-7c0-5.8,3.6-15.1,11.1-15.1c2.5,0,3.5,1,3.5,2.2
			v0.3l0.5-2.3H154.8z M139.9,57.7c0,3.3,1.4,3.4,2.2,3.4c1.3,0,3.1-1.3,3.6-3.8l2.1-9.8c0-0.5-0.4-1.6-1.8-1.6
			C142.3,45.8,139.9,53.6,139.9,57.7z"/>
		<path fill="#F68F3B" d="M169.4,42c0.5,11.2,1,12.9,1,15.7c0,5.6-5.1,7.5-8.6,7.5c-4.4,0-6.3-2.9-6.3-5.5c0-2,1.1-3.5,2.3-4
			c2.4-4.3,4-8.6,5.3-12.8L169.4,42z M158.9,59.4c-0.4,0-1-0.1-1.2-0.6c0,2,0.7,3,2.6,3s3.8-1,3.8-4c0-2.2-0.4-3.6-0.8-10.2
			c-0.9,2.8-2.1,5.4-3.5,8.2c0.6,0.3,1,0.8,1,1.5C160.8,58.3,160,59.4,158.9,59.4z"/>
		<path fill="#F68F3B" d="M200.6,43.4l-3.1,14.7c-0.1,0.6-0.2,1-0.2,1.4c0,1.2,0.6,1.6,1.8,1.6c0.4,0,0.6,0,1-0.2
			c-1.2,3-2,4.4-4.3,4.4c-2.3,0-3.9-1.5-4.2-4c-1.3,2-3.4,4-6.4,4c-2.9,0-5.8-1.8-5.8-7c0-5.8,3.6-15.1,11.1-15.1
			c2.5,0,3.5,1,3.5,2.2v0.3l0.5-2.3H200.6z M185.7,57.7c0,3.3,1.4,3.4,2.2,3.4c1.3,0,3.1-1.3,3.6-3.8l2.1-9.8c0-0.5-0.4-1.6-1.8-1.6
			C188.1,45.8,185.7,53.6,185.7,57.7z"/>
		<path fill="#F68F3B" d="M232,34.7l-5,23.4c-0.1,0.6-0.2,1-0.2,1.4c0,1.2,0.6,1.6,1.8,1.6c1.7,0,2.9-1.6,3.5-3.8h1.8
			c-2.5,7-6.4,7.7-8.7,7.7c-2.3,0-3.9-1.3-4.2-3.7c-1.3,2-3.3,4-6.4,4c-2.9,0-5.8-1.8-5.8-7c0-5.8,3.6-15.1,11.1-15.1
			c2.5,0,3.5,1,3.5,2.2v0.2l2.1-9.9L232,34.7z M221,57.3l2.1-9.9c-0.1-0.5-0.5-1.5-1.8-1.5c-3.7,0-6.1,7.8-6.1,11.8
			c0,3.3,1.4,3.4,2.2,3.4c1.2,0,3-1.2,3.5-3.6V57.3z"/>
		<path fill="#F68F3B" d="M241.3,43.4l-0.6,2.7c1.5-1.3,3.2-2.7,5.2-2.7c1.9,0,3,1.6,3,3.2c0,1.5-1,3.2-3.1,3.2
			c-2.4,0-1.2-2.9-2.5-2.9s-2.1,0.6-3.2,1.6L236.7,65h-6.2l4.6-21.6H241.3z"/>
		<path fill="#F68F3B" d="M269.1,43.4L266,58.1c-0.1,0.6-0.2,1-0.2,1.4c0,1.2,0.6,1.9,1.8,1.9c1.7,0,2.9-1.9,3.5-4.1h1.8
			c-2.5,7-6.4,8-8.7,8c-2.4,0-4-1.4-4.2-4c-1.3,2-3.4,4-6.4,4c-2.9,0-5.8-1.8-5.8-7c0-5.8,3.6-15.1,11.1-15.1c2.5,0,3.5,1,3.5,2.2
			v0.3l0.5-2.3H269.1z M254.2,57.7c0,3.3,1.4,3.4,2.2,3.4c1.3,0,3.1-1.3,3.6-3.8l2.1-9.8c0-0.5-0.4-1.6-1.8-1.6
			C256.6,45.8,254.2,53.6,254.2,57.7z"/>
		<path fill="#F68F3B" d="M280.3,43.4l-3.1,14.7c-0.1,0.3-0.1,0.7-0.1,1.1c0,1,0.3,1.9,1.3,1.9c1.7,0,2.8-1.6,3.5-3.8l2.9-13.9h6.2
			l-3.1,14.7c-0.1,0.6-0.2,1.2-0.2,1.6c0,0.9,0.4,1.4,1.5,1.4c4.2,0,7.5-9.7,7.5-14.4c-0.1,0.3-1,0.4-1.4,0.4c-1,0-1.6-1.3-1.6-2.2
			c0-1.3,0.9-2.3,2.7-2.3c2.1,0,2.7,1.9,2.7,3.8c0,6.9-3.5,19-12.3,19c-2.8,0-4.7-1.2-5.2-3.6c-2.1,3.1-4.4,3.6-6.1,3.6
			c-2.6,0-4.6-1.6-4.6-5.2c0-0.8,0.1-1.8,0.3-2.8l2.9-13.9H280.3z"/>
	</g>
	<g>
		<g>
			<g>
				<polygon fill="#F68F3B" points="241.3,0 243.2,4 247.6,4.6 244.4,7.7 245.2,12 241.3,10 237.4,12 238.1,7.7 234.9,4.6 239.3,4 
									"/>
			</g>
		</g>
		<g>
			<g>
				<polygon fill="#F68F3B" points="220.9,0 222.8,4 227.2,4.6 224.1,7.7 224.8,12 220.9,10 217,12 217.7,7.7 214.6,4.6 218.9,4 
									"/>
			</g>
		</g>
		<g>
			<g>
				<polygon fill="#F68F3B" points="200.5,0 202.5,4 206.8,4.6 203.7,7.7 204.4,12 200.5,10 196.6,12 197.4,7.7 194.2,4.6 198.6,4 
									"/>
			</g>
		</g>
		<g>
			<g>
				<polygon fill="#F68F3B" points="180.2,0 182.1,4 186.5,4.6 183.3,7.7 184.1,12 180.2,10 176.3,12 177,7.7 173.9,4.6 178.2,4 
									"/>
			</g>
		</g>
		<g>
			<g>
				<polygon fill="#F68F3B" points="159.8,0 161.8,4 166.1,4.6 163,7.7 163.7,12 159.8,10 155.9,12 156.7,7.7 153.5,4.6 157.9,4 
									"/>
			</g>
		</g>
		<g>
			<g>
				<polygon fill="#F68F3B" points="139.5,0 141.4,4 145.8,4.6 142.6,7.7 143.4,12 139.5,10 135.6,12 136.3,7.7 133.1,4.6 137.5,4 
									"/>
			</g>
		</g>
		<g>
			<g>
				<polygon fill="#F68F3B" points="119.1,0 121,4 125.4,4.6 122.3,7.7 123,12 119.1,10 115.2,12 115.9,7.7 112.8,4.6 117.1,4 				
					"/>
			</g>
		</g>
		<g>
			<g>
				<polygon fill="#F68F3B" points="98.7,0 100.7,4 105,4.6 101.9,7.7 102.6,12 98.7,10 94.8,12 95.6,7.7 92.4,4.6 96.8,4 				"/>
			</g>
		</g>
		<g>
			<g>
				<polygon fill="#F68F3B" points="78.4,0 80.3,4 84.7,4.6 81.5,7.7 82.3,12 78.4,10 74.5,12 75.2,7.7 72.1,4.6 76.4,4 				"/>
			</g>
		</g>
		<g>
			<g>
				<polygon fill="#F68F3B" points="58,0 60,4 64.3,4.6 61.2,7.7 61.9,12 58,10 54.1,12 54.9,7.7 51.7,4.6 56.1,4 				"/>
			</g>
		</g>
		<g>
			<g>
				<polygon fill="#F68F3B" points="37.7,0 39.6,4 44,4.6 40.8,7.7 41.6,12 37.7,10 33.8,12 34.5,7.7 31.3,4.6 35.7,4 				"/>
			</g>
		</g>
		<g>
			<g>
				<polygon fill="#F68F3B" points="17.3,0 19.2,4 23.6,4.6 20.5,7.7 21.2,12 17.3,10 13.4,12 14.1,7.7 11,4.6 15.3,4 				"/>
			</g>
		</g>
		<g>
			<g>
				<polygon fill="#F68F3B" points="241.3,91.5 243.2,95.4 247.6,96 244.4,99.1 245.2,103.5 241.3,101.4 237.4,103.5 238.1,99.1 
					234.9,96 239.3,95.4 				"/>
			</g>
		</g>
		<g>
			<g>
				<polygon fill="#F68F3B" points="220.9,91.5 222.8,95.4 227.2,96 224.1,99.1 224.8,103.5 220.9,101.4 217,103.5 217.7,99.1 
					214.6,96 218.9,95.4 				"/>
			</g>
		</g>
		<g>
			<g>
				<polygon fill="#F68F3B" points="200.5,91.5 202.5,95.4 206.8,96 203.7,99.1 204.4,103.5 200.5,101.4 196.6,103.5 197.4,99.1 
					194.2,96 198.6,95.4 				"/>
			</g>
		</g>
		<g>
			<g>
				<polygon fill="#F68F3B" points="180.2,91.5 182.1,95.4 186.5,96 183.3,99.1 184.1,103.5 180.2,101.4 176.3,103.5 177,99.1 
					173.9,96 178.2,95.4 				"/>
			</g>
		</g>
		<g>
			<g>
				<polygon fill="#F68F3B" points="282,0 283.9,4 288.3,4.6 285.1,7.7 285.9,12 282,10 278.1,12 278.8,7.7 275.7,4.6 280,4 				"/>
			</g>
		</g>
		<g>
			<g>
				<polygon fill="#F68F3B" points="261.6,0 263.6,4 267.9,4.6 264.8,7.7 265.5,12 261.6,10 257.7,12 258.5,7.7 255.3,4.6 259.7,4 
									"/>
			</g>
		</g>
		<g>
			<g>
				<polygon fill="#F68F3B" points="282,91.5 283.9,95.4 288.3,96 285.1,99.1 285.9,103.5 282,101.4 278.1,103.5 278.8,99.1 
					275.7,96 280,95.4 				"/>
			</g>
		</g>
		<g>
			<g>
				<polygon fill="#F68F3B" points="261.6,91.5 263.6,95.4 267.9,96 264.8,99.1 265.5,103.5 261.6,101.4 257.7,103.5 258.5,99.1 
					255.3,96 259.7,95.4 				"/>
			</g>
		</g>
		<g>
			<g>
				<polygon fill="#F68F3B" points="159.8,91.5 161.8,95.4 166.1,96 163,99.1 163.7,103.5 159.8,101.4 155.9,103.5 156.7,99.1 
					153.5,96 157.9,95.4 				"/>
			</g>
		</g>
		<g>
			<g>
				<polygon fill="#F68F3B" points="139.5,91.5 141.4,95.4 145.8,96 142.6,99.1 143.4,103.5 139.5,101.4 135.6,103.5 136.3,99.1 
					133.1,96 137.5,95.4 				"/>
			</g>
		</g>
		<g>
			<g>
				<polygon fill="#F68F3B" points="119.1,91.5 121,95.4 125.4,96 122.3,99.1 123,103.5 119.1,101.4 115.2,103.5 115.9,99.1 
					112.8,96 117.1,95.4 				"/>
			</g>
		</g>
		<g>
			<g>
				<polygon fill="#F68F3B" points="98.7,91.5 100.7,95.4 105,96 101.9,99.1 102.6,103.5 98.7,101.4 94.8,103.5 95.6,99.1 92.4,96 
					96.8,95.4 				"/>
			</g>
		</g>
		<g>
			<g>
				<polygon fill="#F68F3B" points="78.4,91.5 80.3,95.4 84.7,96 81.5,99.1 82.3,103.5 78.4,101.4 74.5,103.5 75.2,99.1 72.1,96 
					76.4,95.4 				"/>
			</g>
		</g>
		<g>
			<g>
				<polygon fill="#F68F3B" points="58,91.5 60,95.4 64.3,96 61.2,99.1 61.9,103.5 58,101.4 54.1,103.5 54.9,99.1 51.7,96 
					56.1,95.4 				"/>
			</g>
		</g>
		<g>
			<g>
				<polygon fill="#F68F3B" points="37.7,91.5 39.6,95.4 44,96 40.8,99.1 41.6,103.5 37.7,101.4 33.8,103.5 34.5,99.1 31.3,96 
					35.7,95.4 				"/>
			</g>
		</g>
		<g>
			<g>
				<polygon fill="#F68F3B" points="17.3,91.5 19.2,95.4 23.6,96 20.5,99.1 21.2,103.5 17.3,101.4 13.4,103.5 14.1,99.1 11,96 
					15.3,95.4 				"/>
			</g>
		</g>
	</g>
</g>
</svg>
