<?xml version="1.0" encoding="utf-8"?>
<!-- Generator: Adobe Illustrator 18.1.1, SVG Export Plug-In . SVG Version: 6.00 Build 0)  -->
<svg version="1.1" id="Layer_1" xmlns="http://www.w3.org/2000/svg" xmlns:xlink="http://www.w3.org/1999/xlink" x="0px" y="0px"
	 viewBox="0 0 61.7 67.4" enable-background="new 0 0 61.7 67.4" xml:space="preserve">
<path fill="#6DC28E" d="M38.2,47.8c-0.7-0.9-1.1-2.1-1.1-3.4c0-0.6,0.1-1.2,0.2-1.7c3.5-2.8,6.3-7.8,7.6-14c0.1,0,0.1,0,0.2,0
	c0.6-0.1,0.9-0.5,0.9-0.9c0-0.4,0.2-0.8,0.5-1.1c0.3-0.3,1-2.5,0.4-5.2c-0.2-0.9-0.5-1.1-0.8-0.9c0.2-3.7,0.1-7.9-0.7-9
	c0.4-1.3,2.1-3.3,1.5-5.2c-0.6-1.8-4-4.7-7.1-5.4C27.9-1.7,23.2,1.8,22.6,2.4c0,0-6.7,3.7-6.8,18.5c-0.3-0.5-0.7-0.5-1,0.6
	c-0.6,2.7,0.1,5,0.4,5.2c0.3,0.3,0.5,0.7,0.5,1.1c0,0.4,0.3,0.8,0.9,0.9c0.1,0,0.2,0,0.3,0c1.3,6.1,4,11.1,7.5,13.9
	c0.2,0.5,0.3,1.1,0.3,1.7c0,1.3-0.4,2.5-1.1,3.5C10,49.4,0,55.3,0,62.4c0,0.1,0,0.3,0,0.4c0,0.2,0,0.4,0.1,0.6
	c1.1,3.1,14.4,3.9,30.8,3.9s29.7-0.8,30.8-3.9c0-0.2,0-0.4,0.1-0.6c0-0.1,0-0.3,0-0.4C61.7,55.3,51.7,49.4,38.2,47.8z"/>
</svg>
