<?xml version="1.0" encoding="utf-8"?>
<!-- Generator: Adobe Illustrator 18.1.1, SVG Export Plug-In . SVG Version: 6.00 Build 0)  -->
<svg version="1.1" id="Layer_1" xmlns="http://www.w3.org/2000/svg" xmlns:xlink="http://www.w3.org/1999/xlink" x="0px" y="0px"
	 viewBox="0 0 215.7 215" enable-background="new 0 0 215.7 215" xml:space="preserve">
<g>
	<g>
		<circle fill="#394354" cx="24.2" cy="190.8" r="24.2"/>
		<circle fill="#394354" cx="136" cy="190.8" r="24.2"/>
		<circle fill="#394354" cx="191.5" cy="190.8" r="24.2"/>
		<circle fill="#394354" cx="80.4" cy="190.8" r="24.2"/>
		<circle fill="#394354" cx="24.2" cy="135.3" r="24.2"/>
		<circle fill="#394354" cx="136" cy="135.3" r="24.2"/>
		<circle fill="#394354" cx="191.5" cy="135.3" r="24.2"/>
		<circle fill="#394354" cx="80.4" cy="135.3" r="24.2"/>
		<circle fill="#394354" cx="24.2" cy="79.7" r="24.2"/>
		<circle fill="#394354" cx="136" cy="79.7" r="24.2"/>
		<circle fill="#394354" cx="191.5" cy="79.7" r="24.2"/>
		<circle fill="#394354" cx="80.4" cy="79.7" r="24.2"/>
		<circle fill="#394354" cx="24.2" cy="24.2" r="24.2"/>
		<circle fill="#394354" cx="136" cy="24.2" r="24.2"/>
		<circle fill="#394354" cx="191.5" cy="24.2" r="24.2"/>
		<circle fill="#394354" cx="80.4" cy="24.2" r="24.2"/>
	</g>
	<circle fill="#6DC38E" cx="136" cy="135.3" r="20.2"/>
	<circle fill="#6DC38E" cx="136" cy="79.7" r="20.2"/>
	<circle fill="#6DC38E" cx="136" cy="190.8" r="20.2"/>
	<circle fill="#F78F3A" cx="136" cy="24.2" r="20.2"/>
	<circle fill="#F78F3A" cx="80.4" cy="190.8" r="20.2"/>
</g>
</svg>
