<?xml version="1.0" encoding="utf-8"?>
<!-- Generator: Adobe Illustrator 18.1.1, SVG Export Plug-In . SVG Version: 6.00 Build 0)  -->
<svg version="1.1" id="Layer_1" xmlns="http://www.w3.org/2000/svg" xmlns:xlink="http://www.w3.org/1999/xlink" x="0px" y="0px"
	 viewBox="0 0 263.4 80" enable-background="new 0 0 263.4 80" xml:space="preserve">
<g>
	<path fill="#FFFFFF" d="M37.2,50.1c-3.8,9.5-13.8,13.2-20.3,13.2c-10.5,0-15.6-4.7-15.6-17.5c0-12.9,6.2-37,24.8-37
		c6.7,0,11.9,2.6,11.9,9.5c0,3.8-1.4,6.5-5,6.5c-1.1,0-2.7-0.3-4.1-1.8c1.7-0.9,3.3-3.8,3.3-6.5c0-2.3-1.1-4.3-4.3-4.3
		c-7.8,0-14.8,18.7-14.8,33.2c0,6.5,1.7,11.1,8.5,11.1c5.5,0,10.6-2.7,13.9-7.1L37.2,50.1z"/>
	<path fill="#FFFFFF" d="M62.9,37.4c0.3,0.1,0.6,0.1,0.8,0.1c3.3,0,7.9-2.1,11-4.3l0.6,1.9c-2.7,2.9-7.4,5-12.6,5.9
		c-1.1,13.2-8.3,21.4-17,21.4c-6.6,0-11.4-3.1-11.4-11.2c0-8.2,4.8-25.2,19.5-25.2C60,26,62.9,29.9,62.9,37.4z M56.8,41.3
		c-1.5-0.4-1.9-1.6-1.9-3c0-2,0.9-3.3,2.2-3.8c-0.1-3-0.9-4.1-2.7-4.1c-5,0-9.5,13-9.5,20c0,4.7,0.9,5.8,3.6,5.8
		C52.1,56.1,55.7,49.7,56.8,41.3z"/>
	<path fill="#FFFFFF" d="M84.5,32.9c-2.6,0-4.5,3-5.5,6.5l-4.8,22.8H63.9l7.5-35.6h10.2l-0.8,3.7c3-3.4,6.1-4,8.3-4
		c4.6,0,7.9,2.3,7.9,8c0,5.8-3.4,14.4-3.4,18.3c0,1.8,0.7,3,2.8,3c3.1,0,4.4-2.6,6-6.3h3c-4,11.7-9.5,13.2-13.2,13.2
		c-6.2,0-8.4-4-8.4-8c0-4.8,3.2-13.6,3.2-18.1C87.1,34.1,86.2,32.9,84.5,32.9z"/>
	<path fill="#FFFFFF" d="M120.4,32.9c-2.6,0-4.5,3-5.5,6.5L110,62.2H99.8l7.5-35.6h10.2l-0.8,3.7c3-3.4,6.1-4,8.3-4
		c4.6,0,7.9,2.3,7.9,8c0,5.8-3.4,14.4-3.4,18.3c0,1.8,0.7,3,2.8,3c3.1,0,4.4-2.6,6-6.3h3c-4,11.7-9.5,13.2-13.2,13.2
		c-6.2,0-8.4-4-8.4-8c0-4.8,3.2-13.6,3.2-18.1C123,34.1,122.1,32.9,120.4,32.9z"/>
	<path fill="#FFFFFF" d="M153.1,56.7c5.6,0,9-3.1,12.6-7.2h2.4c-4.1,6.5-10.1,13.2-19.6,13.2c-6.7,0-11.1-3.3-11.1-11.3
		c0-8.2,4.6-25.3,19.2-25.3c6.3,0,7.8,3.3,7.8,6.8c0,8.2-7.8,14.5-16.4,15c-0.1,1-0.1,2-0.1,2.8C148,55.5,149.7,56.7,153.1,56.7z
		 M157.2,29.8c-3.6,0-7.1,7.6-8.5,14.7c5.5-0.4,10.3-5.8,10.3-11.7C159,30.9,158.6,29.8,157.2,29.8z"/>
	<path fill="#FFFFFF" d="M186.4,32.7c0-1.8-0.6-2.9-2-2.9c-4.5,0-9.1,13-9.1,20.9c0,4.8,1.7,6,5.1,6c5.6,0,9-3.1,12.6-7.2h2.4
		c-4.1,6.5-10.1,13.2-19.6,13.2c-6.7,0-11.1-3.3-11.1-11.3c0-8.3,4.7-25.3,19.1-25.3c6.3,0,7.9,3.3,7.9,6.5c0,3.5-1.7,5.2-3.8,5.2
		c-0.8,0-1.6-0.3-2.5-0.9C186.1,35.3,186.4,33.9,186.4,32.7z"/>
	<path fill="#FFFFFF" d="M203.3,50.9c-0.2,0.9-0.4,1.7-0.4,2.5c0,1.5,0.6,2.6,2.5,2.6c0.5,0,1.3,0,1.8-0.2c-2,6.1-5.1,7-7.5,7
		c-5,0-7.1-3.5-7.1-8c0-1.2,0.1-2.5,0.4-3.8l4.6-21.3h-2.3l0.6-2.8h2.3l2.1-9.8l10.5-1.4c0,0-1.1,4.8-2.4,11.2h4.3l-0.6,2.8h-4.3
		L203.3,50.9z"/>
	<path fill="#FFFFFF" d="M228.7,42.7c2.6-7.8,10.4-19.1,10.4-29.5c0-1.4-0.1-2.8-0.5-4.3c4.1,0,7.9,2.3,7.9,6.8
		c0,9-6.8,15-10.4,21.8h11.1l5.8-27.1l10.5-1.4l-6.1,28.5h4.6l-1.4,5.3h-4.3l-4.1,19.6h-10.2l4.2-19.6H228.7z"/>
</g>
</svg>
